<svg width="47" height="47" viewBox="0 0 47 47" fill="none" xmlns="http://www.w3.org/2000/svg">
<path d="M16 1H6C3.23858 1 1 3.23858 1 6V16C1 18.7614 3.23858 21 6 21H16C18.7614 21 21 18.7614 21 16V6C21 3.23858 18.7614 1 16 1Z" stroke="black" stroke-dasharray="2 2"/>
<path d="M16 27H6C3.23858 27 1 29.2386 1 32V42C1 44.7614 3.23858 47 6 47H16C18.7614 47 21 44.7614 21 42V32C21 29.2386 18.7614 27 16 27Z" fill="#882222"/>
<path d="M42 27H32C29.2386 27 27 29.2386 27 32V42C27 44.7614 29.2386 47 32 47H42C44.7614 47 47 44.7614 47 42V32C47 29.2386 44.7614 27 42 27Z" fill="#111111"/>
<path d="M42 1H32C29.2386 1 27 3.23858 27 6V16C27 18.7614 29.2386 21 32 21H42C44.7614 21 47 18.7614 47 16V6C47 3.23858 44.7614 1 42 1Z" fill="#5AAAD2"/>
</svg>
