<?xml version="1.0" encoding="utf-8"?>
<!-- Generator: Adobe Illustrator 19.2.1, SVG Export Plug-In . SVG Version: 6.00 Build 0)  -->
<svg version="1.1" id="layer" xmlns="http://www.w3.org/2000/svg" xmlns:xlink="http://www.w3.org/1999/xlink" x="0px" y="0px"
	 viewBox="0 0 652 652" style="enable-background:new 0 0 652 652;" xml:space="preserve">
<style type="text/css">
	.st0{fill:#0F4876;}
	.st1{fill:#F16177;}
</style>
<g>
	<path class="st0" d="M85.7,550.2c-39.2,0-62.8-26.4-62.8-65.6c0-39.2,23.6-66.3,62.8-66.3s63.2,27.2,63.2,66.3
		C148.9,523.8,124.9,550.2,85.7,550.2 M188.4,548.7c-10-0.2-12.8-8-12.8-21.6V409.3c0-7.2-1.6-9.2-9.2-9.2h-6.8
		c-7.2,0-9.2,2-9.2,9.2v11.3c-15.4-15.3-37.5-24.3-64.7-24.3C31.4,396.3-3,432.7-3,484.6c0,52,34.4,87.5,88.7,87.5
		c27.8,0,50.4-9.3,65.9-25.4c2.9,16.7,11.6,23.9,31.1,23.9c8.2,0,11.6-7,11.2-13.6C193.6,551.9,190.9,548.8,188.4,548.7"/>
	<path class="st0" d="M464.2,559.5c0,7.2-2,9.2-9.2,9.2h-7.2c-7.2,0-9.2-2-9.2-9.2v-92.3c0-36.8-20.4-48.4-40.4-48.4
		c-19.6,0-40.8,11.6-40.8,48.4v92.3c0,7.2-2,9.2-9.2,9.2h-6.8c-7.6,0-9.2-2-9.2-9.2v-92.3c0-36.8-20.8-48.4-40.8-48.4
		c-19.6,0-40.4,11.6-40.4,48.4v92.3c0,7.2-1.6,9.2-9.2,9.2h-6.8c-7.6,0-9.2-2-9.2-9.2v-91.1c0-56.3,32.8-71.5,63.1-71.5
		c23.2,0,45.2,9.2,55.9,36c10-26,32-36,55.9-36c30.4,0,63.1,15.2,63.1,71.5V559.5z"/>
	<path class="st0" d="M539.7,527.9V410c0-7.2-1.6-9.2-9.2-9.2h-6.8c-7.2,0-9.2,2-9.2,9.2v120.7c0,28.8,7.3,40.8,32.4,40.8
		c8.2,0,11.6-7,11.2-13.6c-0.4-5.2-3-8.3-5.6-8.3C542.5,549.3,539.7,541.5,539.7,527.9"/>
	<path class="st0" d="M624.6,527.9V410c0-7.2-1.6-9.2-9.2-9.2h-6.8c-7.2,0-9.2,2-9.2,9.2v120.7c0,28.8,7.3,40.8,32.4,40.8
		c8.2,0,11.6-7,11.2-13.6c-0.4-5.2-3-8.3-5.6-8.3C627.4,549.3,624.6,541.5,624.6,527.9"/>
	<path class="st1" d="M237.5,301c-45.6-0.6-71-21.1-75.6-60.9c-3.7-32.3,2-53.9,17-64.4c7.9-5.5,18.2-7.9,30.5-7.9
		c49.7,0,130.6,40.2,204,77C349.6,280.3,283.5,301.6,237.5,301 M418.4,241.9c-0.3-0.1-0.5-0.3-0.8-0.4
		c-97.8-48.9-198.9-99.5-241.5-69.7c-16.8,11.7-23,34.3-19,68.9c4.8,42,32.6,64.5,80.3,65.2c0.7,0,1.5,0,2.2,0
		c52.8,0,120.5-25.1,179.1-58.4C419.8,248,419.6,241.2,418.4,241.9"/>
	<path class="st1" d="M477.1,95.1c4-4.5,10.2-6.8,18.4-6.8c5.4,0,11.7,1,18.8,2.9c21.4,5.9,31.1,16.8,28.9,32.4
		c-2.7,19-22.8,44.4-54.7,70.6C473.2,151,463.2,110.6,477.1,95.1 M486.2,202.3c5.2,14.1,10.8,28.5,16.5,42.6c1.5-0.7,2.9-1.4,4.4-2
		c-5.7-14.3-11.6-29.2-16.9-43.8c32.6-26.7,54.8-53.7,57.8-74.7c1.8-12.7-2.4-29.5-32.4-37.8c-19.9-5.5-34.1-3.7-42.1,5.3
		c-15.8,17.6-5.5,59.7,11,105.7c-16.2,12.9-35.1,26-56.2,38.6c-3.3,2-6.6,3.9-9.9,5.8c1.8,0.9,3.6,1.8,5.4,2.7
		C446.6,231.3,467.9,216.9,486.2,202.3"/>
	<path class="st1" d="M528.8,298.6c-0.7-1.9-1.4-3.9-2.1-5.9c-4.3-11.6-9.6-25.1-15.8-40.7c-0.6-1.5-1.2-3-1.8-4.6
		c-1.5,0.6-3,1.3-4.4,2c0.6,1.5,1.2,2.9,1.8,4.4c5,12.4,9.9,24.8,14.3,36.4c0.8,2,1.5,4.1,2.2,6.1c8,22,12.8,39.4,8.7,43.9
		c-1,1.1-2.9,1.2-5.7,0.4l-1.3,4.7c1.6,0.5,3.1,0.7,4.5,0.7c2.6,0,4.6-0.8,6.2-2.5C540.5,337.6,537.4,322.7,528.8,298.6"/>
	<path class="st1" d="M573.4,231.4c-22.5-2.4-46.2,2.6-66.3,11.4c-1.5,0.7-3,1.3-4.4,2c-13.1,6.3-24.5,14.2-32.5,22.6
		c-15-7.2-30.6-15-46.4-22.9c-1.7,1-3.4,1.9-5.1,2.9c16.3,8.2,32.5,16.2,48.1,23.8c-4.7,5.7-7.9,11.6-9,17.4
		c-3.2,16.3,5.8,39.3,66.7,56.7l1.3-4.7c-44.7-12.8-67.2-30.9-63.3-51.1c1.1-5.5,4.1-11,8.5-16.2c18.2,8.7,35.6,16.6,51.7,23
		c-0.7-2-1.5-4-2.2-6.1c-14.4-5.9-29.9-12.9-46-20.7c7.6-7.6,18.1-14.5,30-20.1c1.5-0.7,2.9-1.3,4.4-2c20.1-8.6,43.5-13.4,63.9-11.3
		c19.6,2.1,42.8,11.4,42.2,44c-0.2,11.8-3.8,19.6-10.9,23.9c-14.6,8.8-42.5,2.5-77.5-11.4c0.8,2,1.5,4,2.1,5.9
		c34.6,13.2,62.5,18.9,77.9,9.6c8.5-5.1,12.9-14.5,13.2-27.9C620.5,252,604,234.7,573.4,231.4"/>
	<path class="st0" d="M593.4,305c0-10.3,7.4-17.4,17.4-17.4c9.1,0,16.5,7,16.5,17.4c0,10.8-7.4,17.4-16.5,17.4
		C600.8,322.4,593.4,315.8,593.4,305"/>
	<path class="st0" d="M494.9,89.5c0-10.3,7.4-17.4,17.4-17.4c9.1,0,16.5,7,16.5,17.4c0,10.8-7.4,17.4-16.5,17.4
		C502.4,106.9,494.9,100.3,494.9,89.5"/>
	<path class="st0" d="M403.1,245.7c0-10.3,7.4-17.4,17.4-17.4c9.1,0,16.5,7,16.5,17.4c0,10.8-7.4,17.4-16.5,17.4
		C410.6,263,403.1,256.4,403.1,245.7"/>
	<path class="st0" d="M512.3,339.4c0-10.3,7.4-17.4,17.4-17.4c9.1,0,16.5,7,16.5,17.4c0,10.8-7.4,17.4-16.5,17.4
		C519.7,356.8,512.3,350.2,512.3,339.4"/>
	<path class="st0" d="M160.8,278.2c0-10.3,7.4-17.4,17.4-17.4c9.1,0,16.5,7,16.5,17.4c0,10.8-7.4,17.4-16.5,17.4
		C168.2,295.5,160.8,288.9,160.8,278.2"/>
</g>
</svg>
