<svg width="126" height="106" viewBox="0 0 126 106" fill="none" xmlns="http://www.w3.org/2000/svg">
<g clip-path="url(#clip0_502_19)">
<path d="M62.7907 4.75431C47.6129 4.75431 35.2635 16.977 35.2635 32.0003C35.2635 47.024 47.6129 59.2466 62.7907 59.2466C77.9708 59.2466 90.32 47.024 90.32 32.0003C90.32 16.977 77.9708 4.75431 62.7907 4.75431ZM62.7907 64.001C44.9623 64.001 30.46 49.6459 30.46 32.0003C30.46 14.3551 44.9623 -2.08935e-05 62.7907 -2.08935e-05C80.619 -2.08935e-05 95.1236 14.3551 95.1236 32.0003C95.1236 49.6459 80.619 64.001 62.7907 64.001Z" fill="#193C57"/>
<path d="M57.1555 42.1807H60.3059C60.454 42.1807 60.7173 42.1242 60.8151 41.7507L62.5412 35.4911L55.043 35.9614L56.6455 41.748C56.7441 42.1242 57.0074 42.1807 57.1555 42.1807Z" fill="#6A97AA"/>
<path d="M68.6367 42.1807H71.7403C72.0278 42.1807 72.2064 42.007 72.2064 41.728C72.2064 41.6531 72.1945 41.5846 72.1707 41.523L70.3857 34.9996L66.3281 35.2539L68.1266 41.748C68.2252 42.1242 68.4886 42.1807 68.6367 42.1807Z" fill="#6A97AA"/>
<path d="M74.6439 42.0807C74.7093 42.1481 74.7916 42.1807 74.8879 42.1807H78.2604C78.3566 42.1807 78.439 42.1481 78.5043 42.0807C78.5724 42.0145 78.6053 41.9334 78.6053 41.8381V34.4846L74.543 34.739V41.8381C74.543 41.9334 74.5758 42.0145 74.6439 42.0807Z" fill="#6A97AA"/>
<path d="M46.667 36.4861L50.858 36.2235L52.9824 28.5196L55.0431 35.9613L62.5412 35.491L64.4637 28.5196L66.3283 35.2539L70.3859 34.9995L66.8982 22.2548C66.8293 21.9785 66.6435 21.8202 66.3881 21.8202H62.5527C62.2985 21.8202 62.1132 21.9785 62.0455 22.2505L58.73 34.3619L55.4169 22.2548C55.348 21.9785 55.1622 21.8202 54.9064 21.8202H51.071C50.8172 21.8202 50.6319 21.9785 50.5642 22.2505" fill="#193C57"/>
<path d="M78.5043 21.9202C78.439 21.854 78.3566 21.8203 78.2604 21.8203H74.8879C74.7916 21.8203 74.7093 21.854 74.6439 21.9202C74.5758 21.9865 74.543 22.0676 74.543 22.1628V34.739L78.6053 34.4847V22.1628C78.6053 22.0676 78.5724 21.9865 78.5043 21.9202Z" fill="#193C57"/>
<path d="M63.1689 38.6377C63.1689 37.8488 63.8152 37.2092 64.6123 37.2092C65.4094 37.2092 66.0556 37.8488 66.0556 38.6377C66.0556 39.427 65.4094 40.0667 64.6123 40.0667C63.8152 40.0667 63.1689 39.427 63.1689 38.6377Z" fill="#6A97AA"/>
<path d="M49.3331 41.7507L50.8572 36.2235L46.6662 36.4861L45.2827 41.5403C45.2372 41.7323 45.257 41.8875 45.3397 41.998C45.3991 42.0811 45.5132 42.1807 45.7202 42.1807H48.8239C48.8469 42.1807 48.8738 42.1783 48.9015 42.1744C48.9423 42.1579 48.9795 42.1332 49.0128 42.0995C49.0183 42.094 49.054 42.0968 49.1011 42.1027C49.1961 42.0415 49.2848 41.9349 49.3331 41.7507Z" fill="#6A97AA"/>
<path d="M106.439 105.137L110.035 92.0786L106.262 92.318L102.773 105.023C102.741 105.157 102.749 105.257 102.799 105.323C102.82 105.354 102.849 105.375 102.881 105.391L103.866 105.423H106.121C106.284 105.423 106.389 105.328 106.439 105.137Z" fill="#6A97AA"/>
<path d="M114.452 105.423H117.555C117.734 105.423 117.824 105.337 117.824 105.166C117.824 105.109 117.814 105.062 117.798 105.023L114.18 91.8073L110.503 92.0467L114.134 105.137C114.183 105.328 114.289 105.423 114.452 105.423Z" fill="#6A97AA"/>
<path d="M83.8631 102.071C84.4871 103.126 85.3666 103.949 86.4995 104.538C87.6335 105.128 88.9399 105.423 90.42 105.423C91.899 105.423 93.2005 105.142 94.3251 104.581C95.4489 104.021 96.3177 103.207 96.9334 102.141C97.548 101.077 97.8552 99.8224 97.8552 98.3759V94.6107C97.8552 94.5166 97.8224 94.4351 97.7543 94.3681C97.6873 94.3018 97.6054 94.2681 97.5103 94.2681H90.4774C90.3812 94.2681 90.2992 94.3018 90.2323 94.3681C90.1642 94.4351 90.1313 94.5166 90.1313 94.6107V97.235C90.1313 97.3303 90.1642 97.4114 90.2323 97.4775C90.2992 97.545 90.3812 97.5775 90.4774 97.5775H93.705C93.8008 97.5775 93.8492 97.6249 93.8492 97.7202V99.004C93.8492 99.936 93.5514 100.664 92.9566 101.186C92.3595 101.709 91.562 101.971 90.5641 101.971C89.5263 101.971 88.6714 101.653 87.9982 101.015C87.3263 100.378 86.9897 99.5461 86.9897 98.5189V93.8492L82.9258 94.1188V98.4048C82.9258 99.7933 83.2378 101.015 83.8631 102.071Z" fill="#6A97AA"/>
<path d="M64.2641 105.095C64.331 105.162 64.4129 105.194 64.5092 105.194H67.8809C67.9771 105.194 68.0591 105.162 68.126 105.095C68.1937 105.028 68.2266 104.947 68.2266 104.852L68.1803 95.0972L64.1631 95.3637V104.852C64.1631 104.947 64.1971 105.028 64.2641 105.095Z" fill="#6A97AA"/>
<path d="M76.2115 105.194H79.468C79.5642 105.194 79.6453 105.162 79.7131 105.095C79.78 105.028 79.814 104.947 79.814 104.852V94.3252L75.7715 94.5936L75.7786 97.5497C75.7786 97.6251 75.7596 97.6681 75.7212 97.6771C75.6824 97.6877 75.6436 97.6635 75.606 97.6065L73.8407 94.7217L69.7119 94.9957L75.808 104.966C75.884 105.119 76.019 105.194 76.2115 105.194Z" fill="#6A97AA"/>
<path d="M43.6422 104.909C43.6996 105.099 43.8239 105.194 44.0163 105.194H47.6482C47.8395 105.194 47.965 105.099 48.0224 104.909L50.7258 96.2554L46.8262 96.5139L46.0346 99.4325C46.0148 99.4894 45.9867 99.5171 45.9479 99.5171C45.9091 99.5171 45.8798 99.4894 45.8612 99.4325L45.1073 96.6946L45.0894 96.6292L41.1729 96.889L41.2853 97.2543L43.6422 104.909Z" fill="#6A97AA"/>
<path d="M21.0182 100.221C21.1764 100.871 21.4122 101.48 21.7382 102.041C22.3727 103.136 23.2606 103.987 24.4039 104.595C25.5475 105.203 26.8691 105.508 28.3679 105.508C29.8854 105.508 31.2154 105.208 32.3589 104.609C33.5023 104.01 34.3912 103.16 35.0257 102.057C35.6589 100.954 35.9768 99.6888 35.9768 98.2622V98.0313V97.2339L31.912 97.5035V98.4049C31.912 98.4888 31.8786 98.5503 31.8747 98.6318C31.8291 99.6198 31.5363 100.443 30.9327 101.057C30.2795 101.724 29.4234 102.057 28.3679 102.057C27.31 102.057 26.4598 101.724 25.8171 101.057C25.4375 100.666 25.205 100.174 25.0493 99.6311C24.9404 99.2515 24.8508 98.8588 24.8508 98.4049V97.9722L20.7871 98.2418V98.2622C20.7871 98.9558 20.8683 99.6069 21.0182 100.221Z" fill="#6A97AA"/>
<path d="M13.6104 104.852C13.6104 104.947 13.6444 105.028 13.7123 105.095C13.7791 105.162 13.8602 105.194 13.9562 105.194H17.3291C17.4253 105.194 17.5062 105.162 17.5743 105.095C17.6411 105.028 17.6752 104.947 17.6752 104.852V100.711V98.4484L13.6104 98.7182V101.306V104.852Z" fill="#6A97AA"/>
<path d="M0.583008 104.852C0.583008 104.947 0.617037 105.028 0.683858 105.095C0.750679 105.162 0.832812 105.194 0.929022 105.194H4.30069C4.3969 105.194 4.47888 105.162 4.54569 105.095C4.61376 105.028 4.64654 104.947 4.64654 104.852V102.619V99.313L0.583008 99.5826V103.214V104.852Z" fill="#6A97AA"/>
<path d="M112.521 85.7402C112.473 85.5501 112.366 85.4548 112.203 85.4548H108.368C108.205 85.4548 108.099 85.5501 108.052 85.7402L106.262 92.3181L110.035 92.0787L110.206 91.4762C110.221 91.4195 110.245 91.3868 110.277 91.3767C110.311 91.3672 110.335 91.401 110.351 91.4762L110.509 92.0465L114.18 91.8074" fill="#193C57"/>
<path d="M121.039 105.323C121.105 105.39 121.187 105.423 121.283 105.423H124.656C124.753 105.423 124.834 105.39 124.9 105.323C124.968 105.257 125.001 105.176 125.001 105.08V91.2712L120.938 91.5408V105.08C120.938 105.176 120.971 105.257 121.039 105.323Z" fill="#6A97AA"/>
<path d="M125.001 85.7969C125.001 85.702 124.968 85.6205 124.9 85.5543C124.834 85.4884 124.753 85.4548 124.656 85.4548H121.283C121.187 85.4548 121.105 85.4884 121.039 85.5543C120.971 85.6205 120.938 85.702 120.938 85.7969V91.5408L125.001 91.2712" fill="#193C57"/>
<path d="M13.6101 98.718L17.6749 98.4483V85.5683C17.6749 85.4731 17.6409 85.392 17.5741 85.3258C17.506 85.2595 17.4249 85.2259 17.3289 85.2259H13.956C13.7837 85.2259 13.6488 85.3015 13.5526 85.4535L9.20042 92.1009C9.14304 92.2148 9.08566 92.2148 9.02809 92.1009L4.70531 85.4535C4.6079 85.3015 4.47424 85.2259 4.30069 85.2259H0.929022C0.832812 85.2259 0.750679 85.2595 0.683858 85.3258C0.617037 85.392 0.583008 85.4731 0.583008 85.5683V99.5825L4.64655 99.3125V92.3007C4.64655 92.2239 4.66543 92.1824 4.70531 92.1718C4.74277 92.1623 4.78141 92.1859 4.82026 92.2427L7.87513 96.9783C7.97135 97.1303 8.10515 97.2072 8.27871 97.2072H9.97922C10.1516 97.2072 10.2864 97.1303 10.3826 96.9783L13.4377 92.2427C13.4763 92.1859 13.5139 92.158 13.5526 92.158C13.5913 92.158 13.6101 92.1962 13.6101 92.2718V98.718Z" fill="#193C57"/>
<path d="M35.0257 88.4204C34.3912 87.3364 33.5023 86.4945 32.3589 85.8956C31.2154 85.2967 29.8854 84.9974 28.3679 84.9974C26.8691 84.9974 25.5475 85.2967 24.4039 85.8956C23.2606 86.4945 22.3727 87.3364 21.7382 88.4204C21.1037 89.5044 20.7871 90.7498 20.7871 92.158V98.2417L24.8508 97.9721V92.1286C24.8508 91.0262 25.1721 90.1369 25.8171 89.4613C26.4599 88.7872 27.31 88.4493 28.3679 88.4493C29.4434 88.4493 30.3029 88.7872 30.9468 89.4613C31.5907 90.1369 31.912 91.0262 31.912 92.1286V97.5034L35.9768 97.2338V92.158C35.9768 90.7498 35.6589 89.5044 35.0257 88.4204Z" fill="#193C57"/>
<path d="M41.1733 96.8889L45.0899 96.6291L42.029 85.5116C41.9704 85.3211 41.8366 85.2259 41.6243 85.2259H37.9935C37.7812 85.2259 37.6768 85.3211 37.6768 85.5116L37.7049 85.6253" fill="#193C57"/>
<path d="M46.8262 96.5139L50.7257 96.2553L50.8517 95.8536L54.0468 85.6254C54.0844 85.5116 54.0749 85.4164 54.0175 85.3395C53.9601 85.2644 53.8733 85.226 53.7585 85.226H50.2129C50.0023 85.226 49.8673 85.3212 49.8098 85.5116L46.8464 96.4398" fill="#193C57"/>
<path d="M56.6846 105.095C56.7515 105.162 56.8334 105.194 56.9297 105.194H60.3014C60.3976 105.194 60.4796 105.162 60.5465 105.095C60.6146 105.028 60.6475 104.947 60.6475 104.852V95.5969L56.584 95.867V104.852C56.584 104.947 56.6176 105.028 56.6846 105.095Z" fill="#6A97AA"/>
<path d="M60.5465 85.3259C60.4796 85.2596 60.3976 85.226 60.3014 85.226H56.9297C56.8334 85.226 56.7515 85.2596 56.6846 85.3259C56.6176 85.3921 56.584 85.4732 56.584 85.5684V95.0141V95.8669L60.6475 95.5969V94.4191V85.5684C60.6475 85.4732 60.6146 85.3921 60.5465 85.3259Z" fill="#193C57"/>
<path d="M68.1715 93.3175L68.6432 93.2485L69.7115 94.9957L73.8403 94.7217L72.5859 92.6712L68.1692 85.4537C68.0931 85.3016 67.9581 85.226 67.7657 85.226H64.5092C64.4129 85.226 64.331 85.2597 64.2641 85.326C64.1971 85.3921 64.1631 85.4733 64.1631 85.5685V93.9042V95.3638L68.1803 95.0972" fill="#193C57"/>
<path d="M79.7125 85.3259C79.6448 85.2596 79.5636 85.2259 79.4674 85.2259H76.0957C75.9987 85.2259 75.9175 85.2596 75.8506 85.3259C75.7829 85.392 75.75 85.4732 75.75 85.5684L75.7654 92.2056L75.771 94.5935L79.8135 94.3251V91.6126V85.5684C79.8135 85.4732 79.7794 85.392 79.7125 85.3259Z" fill="#193C57"/>
<path d="M97.3149 89.0502C97.1886 88.7575 97.0955 88.4534 96.9201 88.1778C96.2949 87.1993 95.421 86.424 94.2964 85.853C93.173 85.2827 91.8805 84.9975 90.4206 84.9975C88.9404 84.9975 87.6341 85.2875 86.5 85.8679C85.3672 86.4484 84.4877 87.2702 83.8636 88.3359C83.3778 89.1632 83.139 90.1181 83.0309 91.1419C83 91.4347 82.9268 91.7059 82.9268 92.0151V94.1189L86.9903 93.8493V91.9014C86.9903 91.3956 87.0694 90.9393 87.2207 90.5281C87.3767 90.1045 87.61 89.7282 87.9271 89.4046C88.5512 88.7672 89.3827 88.4494 90.4206 88.4494C91.4386 88.4494 92.2547 88.7489 92.8705 89.3478C92.9687 89.4438 93.0091 89.5656 93.0918 89.6687C93.5254 90.2088 93.7923 90.8241 93.7923 91.5589V91.6436C93.7923 91.74 93.8264 91.8204 93.8929 91.8862C93.9598 91.9536 94.0422 91.986 94.138 91.986H97.5109C97.606 91.986 97.6883 91.9536 97.7548 91.8862C97.8229 91.8204 97.8558 91.74 97.8558 91.6436V91.4441C97.8558 90.5831 97.6372 89.7985 97.3149 89.0502Z" fill="#193C57"/>
<path d="M108.823 101.91C108.823 101.121 109.469 100.482 110.267 100.482C111.064 100.482 111.71 101.121 111.71 101.91C111.71 102.699 111.064 103.339 110.267 103.339C109.469 103.339 108.823 102.699 108.823 101.91Z" fill="#6A97AA"/>
</g>
<defs>
<clipPath id="clip0_502_19">
<rect width="124.419" height="105.508" fill="white" transform="translate(0.583008)"/>
</clipPath>
</defs>
</svg>
